<?xml version="1.0" encoding="UTF-8" standalone="no"?>
<!-- Created with Inkscape (http://www.inkscape.org/) -->

<svg
   width="420.64746"
   height="515.43719"
   viewBox="0 0 420.64746 515.4372"
   version="1.1"
   id="svg1"
   xml:space="preserve"
   sodipodi:docname="developer7.svg"
   inkscape:version="1.3 (0e150ed6c4, 2023-07-21)"
   xmlns:inkscape="http://www.inkscape.org/namespaces/inkscape"
   xmlns:sodipodi="http://sodipodi.sourceforge.net/DTD/sodipodi-0.dtd"
   xmlns="http://www.w3.org/2000/svg"
   xmlns:svg="http://www.w3.org/2000/svg"><sodipodi:namedview
     id="namedview1"
     pagecolor="#ffffff"
     bordercolor="#000000"
     borderopacity="0.25"
     inkscape:showpageshadow="2"
     inkscape:pageopacity="0.0"
     inkscape:pagecheckerboard="0"
     inkscape:deskcolor="#d1d1d1"
     inkscape:document-units="px"
     inkscape:zoom="0.94050726"
     inkscape:cx="192.44934"
     inkscape:cy="289.73726"
     inkscape:window-width="1600"
     inkscape:window-height="877"
     inkscape:window-x="-8"
     inkscape:window-y="-8"
     inkscape:window-maximized="1"
     inkscape:current-layer="layer1" /><defs
     id="defs1" /><g
     inkscape:label="Camada 1"
     inkscape:groupmode="layer"
     id="layer1"
     transform="translate(134.46728,-42.148772)"><g
       id="g100"
       transform="translate(2.126514,-3.1897679)"><path
         style="fill:#fcce97"
         d="m 36.748245,562.70109 c -49.887743,-1.88375 -82.265729,-5.71947 -86.833119,-10.28686 -1.876715,-1.87672 -1.866458,-1.93445 0.634748,-3.57331 9.62299,-6.30522 80.578898,-11.43672 140.198371,-10.13907 60.948595,1.32658 100.043275,5.17163 106.604805,10.48483 1.94438,1.57447 1.99539,1.87317 0.56429,3.30427 -3.23234,3.23234 -25.9557,6.77645 -56.66909,8.83855 -15.65777,1.05126 -87.879242,1.99918 -104.500005,1.37159 z m 26.5,-63.89508 c -36.422678,-10.07127 -65.7179027,-26.82887 -88.5,-50.62423 -5.400696,-5.64089 -12.999226,-12.15201 -19,-16.28093 -35.036138,-24.10715 -60.913955,-56.02249 -76.873645,-94.80894 -10.86206,-26.39779 -16.54344,-58.81201 -15.29953,-87.28901 4.63928,-106.20743 85.20523,-191.132763 191.096853,-201.437021 27.533314,-2.679252 57.311377,0.661588 84.143207,9.440136 66.12476,21.633986 117.82467,75.050635 136.92123,141.467835 25.25514,87.83657 -8.21191,180.53448 -83.98811,232.63241 -6.0373,4.15079 -13.56644,10.60495 -19,16.28729 -23.04334,24.09832 -54.69351,41.96714 -90.550264,51.12218 -9.33119,2.38247 -8.399546,2.40753 -18.949741,-0.50972 z"
         id="path106" /><path
         style="fill:#b8bace"
         d="m 36.748245,562.70109 c -49.887743,-1.88375 -82.265729,-5.71947 -86.833119,-10.28686 -1.876715,-1.87672 -1.866458,-1.93445 0.634748,-3.57331 9.62299,-6.30522 80.578898,-11.43672 140.198371,-10.13907 60.948595,1.32658 100.043275,5.17163 106.604805,10.48483 1.94438,1.57447 1.99539,1.87317 0.56429,3.30427 -3.23234,3.23234 -25.9557,6.77645 -56.66909,8.83855 -15.65777,1.05126 -87.879242,1.99918 -104.500005,1.37159 z m 26.5,-63.89508 c -36.422678,-10.07127 -65.7179027,-26.82887 -88.5,-50.62423 -5.400696,-5.64089 -12.999226,-12.15201 -19,-16.28093 -35.036138,-24.10715 -60.913955,-56.02249 -76.873645,-94.80894 -10.86206,-26.39779 -16.54344,-58.81201 -15.29953,-87.28901 4.63928,-106.20743 85.20523,-191.132763 191.096853,-201.437021 27.533314,-2.679252 57.311377,0.661588 84.143207,9.440136 66.12476,21.633986 117.82467,75.050635 136.92123,141.467835 25.25514,87.83657 -8.21191,180.53448 -83.98811,232.63241 -6.0373,4.15079 -13.56644,10.60495 -19,16.28729 -23.04334,24.09832 -54.69351,41.96714 -90.550264,51.12218 -9.33119,2.38247 -8.399546,2.40753 -18.949741,-0.50972 z m -13.353791,-52.25311 7.853791,-3.75 h 16 16 l 7.853792,3.75 c 8.940563,4.26891 12.283573,4.58805 18.176693,1.73524 4.38752,-2.12396 6.46952,-5.2809 6.46952,-9.80978 0,-11.09306 -26.079416,-20.67173 -43.868703,-16.11247 -3.925252,1.00601 -5.876169,1.03042 -8.941984,0.11188 -12.741739,-3.81752 -34.371112,1.31031 -41.559057,9.8527 -4.754566,5.65048 -2.5231,13.3691 4.784925,16.55102 4.997236,2.1758 8.902623,1.64803 17.231023,-2.32859 z m 17.588549,-11.22989 c -4.614405,-2.09446 -6.369084,-4.68824 -4.130475,-6.10572 0.767644,-0.48607 5.362801,-0.89065 10.211459,-0.89908 13.459847,-0.0234 16.193696,2.7985 6.677332,6.89233 -5.949569,2.55943 -7.340266,2.57169 -12.758316,0.11247 z M 11.509119,415.87819 c 7.933821,-7.80616 19.06505,-14.15289 28.739126,-16.38627 7.457263,-1.72161 61.288885,-1.35548 68.500005,0.46589 9.99039,2.52335 19.22689,7.96823 27.34106,16.11746 7.10834,7.13905 7.40261,7.31709 9.28229,5.616 1.06767,-0.96623 2.87029,-3.26005 4.00582,-5.09737 1.77222,-2.86751 2.55962,-3.30726 5.5601,-3.10519 2.22135,0.1496 3.79715,-0.297 4.32305,-1.2252 3.76875,-6.65174 5.67175,-8.47068 9.17011,-8.76503 3.2909,-0.27689 3.81214,-0.75549 5.7638,-5.29222 1.34955,-3.13714 3.01987,-5.32017 4.50171,-5.88357 1.47884,-0.56225 2.82281,-2.31502 3.60979,-4.70777 0.68958,-2.09661 2.74116,-5.17792 4.55908,-6.84735 2.97193,-2.7292 3.46011,-3.98992 4.84022,-12.5 0.84421,-5.20557 1.51599,-11.48967 1.49284,-13.96467 l -0.0421,-4.5 -3.4103,7.05969 c -4.73822,9.8086 -10.20544,15.68085 -18.29799,19.65356 -6.69406,3.28619 -6.69769,3.28673 -21.19736,3.13974 -12.57506,-0.12748 -15.56521,-0.4882 -22.50214,-2.71455 -16.48005,-5.28914 -24.586,-12.14112 -33.589289,-28.39311 -4.711042,-8.50398 -5.759491,-9.73992 -9.841734,-11.6017 -6.769858,-3.08752 -16.476123,-2.76715 -22.463042,0.74142 -3.726445,2.18384 -5.268274,4.08265 -8.751347,10.77756 -10.765889,20.6934 -26.860703,29.99653 -54.5310907,31.52008 -9.9518183,0.54795 -11.9611583,0.36308 -18.3373533,-1.68714 -9.443017,-3.03634 -16.208373,-9.1258 -21.925432,-19.73497 l -4.182013,-7.76058 0.605733,8 c 0.981444,12.96208 2.715003,19.84037 5.288801,20.98454 1.218094,0.54149 3.324585,3.32861 4.681091,6.19359 1.356506,2.86499 3.38249,5.69936 4.502187,6.2986 1.119697,0.59924 3.050039,3.21213 4.289648,5.8064 1.930929,4.04109 2.753708,4.78851 5.742853,5.21687 2.846496,0.40792 4.092966,1.42078 6.768588,5.5 2.973677,4.53364 3.589864,4.97104 6.6062973,4.68945 2.7308307,-0.25493 3.6468252,0.19288 5.1137589,2.5 1.58977355,2.50031 5.5732344,7.31055 6.0540231,7.31055 0.1006808,0 3.578816,-3.34112 7.7291897,-7.42471 z M -58.951755,364.1029 c 0.862736,-0.86273 1.2,-7.56967 1.2,-23.86351 0,-31.05818 -1.121051,-35.9503 -9.259218,-40.40594 -3.404356,-1.86388 -3.781872,-1.88138 -7.042816,-0.32634 -7.551647,3.60113 -10.427126,17.54562 -7.315428,35.47578 3.377988,19.46458 9.975886,29.35443 20.167462,30.22982 0.5775,0.0496 1.59,-0.44981 2.25,-1.10981 z m 275.376465,-1.92565 c 1.50919,-1.07464 3.64057,-3.21303 4.7364,-4.75198 5.66458,-7.95517 9.9288,-31.18486 7.96775,-43.40495 -1.24164,-7.73716 -3.46249,-11.67197 -7.96576,-14.11343 -3.37749,-1.83111 -3.62586,-1.83496 -7.25591,-0.11239 -2.45469,1.16483 -4.51135,3.21034 -5.92815,5.89601 -2.02547,3.83948 -2.19472,5.7902 -2.55035,29.39498 -0.2095,13.90542 -0.0906,26.43921 0.2642,27.85287 0.59036,2.35219 0.95662,2.51185 4.31646,1.88154 2.01925,-0.37882 4.90616,-1.56801 6.41536,-2.64265 z m -21.48347,-45.60532 c -0.25355,-0.97296 -0.47767,-0.41903 -0.49805,1.23097 -0.0204,1.65 0.18707,2.44607 0.46099,1.76903 0.27393,-0.67703 0.2906,-2.02703 0.0371,-3 z M 71.938057,306.77316 c 0.654396,-0.19871 5.282266,0.0621 10.284156,0.57959 l 9.094344,0.94089 6.715844,-3.36729 c 7.526829,-3.77391 18.711929,-7.70113 27.715849,-9.73134 9.2205,-2.07905 38.89848,-1.84565 49.24477,0.38727 4.53462,0.97866 8.92212,2.0393 9.75,2.35699 1.02869,0.39474 1.50523,-0.0507 1.50523,-1.40693 0,-1.0915 0.63429,-2.51097 1.40954,-3.15436 1.20435,-0.99952 1.10848,-2.21833 -0.65856,-8.37245 -1.13745,-3.96144 -3.01104,-11.02763 -4.16353,-15.70263 l -2.09543,-8.5 -3.49601,0.0521 c -1.92281,0.0287 -8.12616,0.59115 -13.78523,1.25 -5.65907,0.65885 -14.09657,1.19791 -18.75,1.19791 -10.1449,0 -10.75834,1.08326 -4.32534,7.63801 6.69359,6.82027 5.7465,7.3625 -12.85406,7.35918 -26.67904,-0.005 -46.275608,-3.21923 -74.281385,-12.18454 -12.171498,-3.89639 -34.180654,-14.44284 -44.6545716,-21.3978 -4.4850144,-2.97816 -8.79704805,-5.41485 -9.58229686,-5.41485 -0.78524884,0 -4.78988974,3.2625 -8.89920204,7.25 -4.1093125,3.9875 -10.2418885,8.825 -13.6279475,10.75 -3.386059,1.925 -6.566588,4.4 -7.067844,5.5 -0.501255,1.1 -2.320199,8.3 -4.042097,16 -2.902252,12.97832 -3.715704,18.5 -2.725413,18.5 0.220345,0 5.665062,-0.9 12.099372,-2 26.4792658,-4.52685 55.220958,-0.73298 75.5,9.96593 5.041505,2.65982 6.12522,2.85853 13,2.38367 4.125,-0.28493 8.035415,-0.68063 8.689812,-0.87934 z"
         id="path105" /><path
         style="fill:#06d6fb"
         d="m 58.248245,495.83267 c -33.643394,-9.87688 -60.940164,-26.07112 -83.16847,-49.34102 -5.132341,-5.37283 -11.80653,-11.2757 -14.83153,-13.11748 -14.459195,-8.80354 -34.745518,-26.77945 -47.560531,-42.14384 -23.979554,-28.74998 -40.124664,-65.21915 -46.009274,-103.92743 -2.30908,-15.18884 -2.31656,-42.25188 -0.0161,-58.39391 13.19837,-92.6131 85.49002,-164.927627 178.085955,-178.142313 13.643383,-1.947094 44.777946,-1.897907 58.371665,0.09222 46.59559,6.821609 88.5315,28.240316 120.69955,61.647133 41.55737,43.15771 62.36257,99.50834 58.43123,158.26029 -2.99972,44.82937 -19.67661,87.17516 -47.44191,120.46401 -12.81502,15.36439 -33.10134,33.3403 -47.56053,42.14384 -3.025,1.84178 -9.69919,7.74465 -14.83153,13.11748 -17.84159,18.67762 -37.4246,31.81133 -63.13087,42.3399 -12.697704,5.20062 -30.945604,10.49028 -35.961033,10.4243 -1.967115,-0.0259 -8.751572,-1.56631 -15.076572,-3.42318 z m -8.786763,-48.0539 c 14.475503,-6.87439 34.089409,-6.81169 48.938218,0.15642 6.541,3.06951 8.40293,3.53468 11.90602,2.97451 8.71083,-1.39292 13.93142,-6.55097 13.93879,-13.77181 0.003,-3.11546 -0.70851,-4.2978 -4.74626,-7.88514 -9.34923,-8.30629 -20.347681,-11.66587 -34.250005,-10.46199 -10.616,0.9193 -13.390866,0.91834 -24.11365,-0.008 -13.547628,-1.17081 -23.46536,1.97224 -33.13635,10.50132 -3.946611,3.48062 -4.75,4.77514 -4.75,7.65382 0,6.34767 3.204795,10.60384 9.740524,12.93604 5.773552,2.06023 8.436438,1.72159 16.472713,-2.09482 z m 17.383833,-13.74232 c -2.146612,-1.22845 -3.834112,-2.68355 -3.75,-3.23355 0.09076,-0.59346 4.42155,-1 10.65293,-1 6.221169,0 10.568562,0.40751 10.668246,1 0.23692,1.40817 -8.075198,5.50335 -11.130136,5.48355 -1.39596,-0.009 -4.294428,-1.02155 -6.44104,-2.25 z m -55.31473,-17.00428 c 13.031063,-13.12687 26.311555,-18.2927 45.71766,-17.78317 13.67702,0.35911 17.849677,0.35654 33,-0.0203 19.514705,-0.4854 32.685965,4.67518 45.893085,17.9812 l 7.39308,7.44844 3.36347,-3.92771 c 1.84991,-2.16025 4.04584,-4.72553 4.87984,-5.70064 1.16686,-1.36428 1.9569,-1.53715 3.4277,-0.75 2.78681,1.49146 2.75326,1.51443 6.62124,-4.53221 3.2074,-5.01397 3.85843,-5.52541 6.68297,-5.25 2.88194,0.281 3.34234,-0.11809 5.82245,-5.04704 1.48118,-2.94369 3.7033,-5.86869 4.93805,-6.5 1.23475,-0.6313 2.97245,-2.99911 3.86156,-5.26178 1.90439,-4.84646 3.85449,-7.38605 5.67161,-7.38605 0.72059,0 1.55391,-0.7875 1.85182,-1.75 2.17386,-7.02347 5.54371,-41.75924 5.5783,-57.5 0.0119,-5.39503 -0.29193,-6.75 -1.51331,-6.75 -1.32027,0 -1.44153,1.59831 -0.89144,11.75 1.31368,24.24375 -6.29018,40.53278 -22.46041,48.11484 -5.2795,2.4755 -6.49856,2.63267 -20.12001,2.59407 -16.35567,-0.0464 -23.03256,-1.37446 -34.5,-6.86245 -3.85,-1.84249 -8.93161,-5.03187 -11.29246,-7.08749 -4.71299,-4.10366 -12.604066,-16.7161 -14.395755,-23.00897 -1.863464,-6.54496 -2.624582,-6.9276 -14.59483,-7.33731 -6.059317,-0.2074 -12.556291,0.12087 -14.904012,0.75304 -3.536801,0.95237 -4.264946,1.60622 -4.847033,4.3525 -1.265268,5.96953 -8.531985,18.51213 -13.74611,23.72625 -5.591164,5.59117 -15.390484,10.82494 -25.219805,13.46979 -3.316518,0.8924 -12.0378328,1.85995 -19.4999998,2.16335 -11.9979362,0.48782 -14.1562962,0.31685 -19.3985552,-1.53661 -11.964805,-4.2303 -18.832023,-11.98027 -23.697646,-26.74389 l -2.91573,-8.84712 0.561028,8.5 c 0.538234,8.15466 3.026128,26.59865 4.080395,30.25 0.277906,0.9625 1.094859,1.75 1.815451,1.75 1.817119,0 3.767222,2.53959 5.671615,7.38605 0.889107,2.26267 2.661075,4.64756 3.937707,5.29975 1.276631,0.65219 3.512107,3.57719 4.967724,6.5 2.430592,4.88052 2.899541,5.2893 5.746298,5.00907 2.789082,-0.27455 3.455843,0.25158 6.653296,5.25 3.867987,6.04664 3.834432,6.02367 6.6212404,4.53221 2.0500444,-1.09715 1.944882,-1.17881 8.07795941,6.27292 1.69752099,2.0625 3.27933829,3.75 3.51514959,3.75 0.2358112,0 3.6766947,-3.27183 7.6464076,-7.27073 z M -57.461037,366.8029 c 0.434895,-3.3 0.646076,-17.25 0.469292,-31 -0.259893,-20.21416 -0.625884,-25.67002 -1.911839,-28.5 -1.890431,-4.16024 -5.28233,-7.46293 -9.18202,-8.94051 -3.725073,-1.41143 -8.89272,0.95301 -11.577637,5.29729 -10.502241,16.99299 3.630767,70.86478 18.220447,69.45218 3.096528,-0.29981 3.214459,-0.48666 3.981757,-6.30896 z m 272.350287,3.25 c 4.25015,-3.72258 9.21083,-13.69474 12.34543,-24.81727 3.0128,-10.69034 3.86329,-29.85837 1.62396,-36.60035 -4.30219,-12.95268 -15.74214,-14.42515 -21.59864,-2.78003 -2.38084,4.73409 -2.50436,5.89065 -2.86168,26.79412 -0.2054,12.01556 -0.0562,26.07806 0.33156,31.25 l 0.70501,9.40353 h 2.87188 c 1.81226,0 4.24096,-1.19914 6.58248,-3.25 z M -46.416537,322.61606 c 0.646114,-6.91909 0.230153,-8.82117 -1.374278,-6.2842 -1.169982,1.85001 -1.260473,12.97104 -0.105545,12.97104 0.470468,0 1.136388,-3.00908 1.479823,-6.68684 z m 145.466413,-5.77713 c 1.293654,-2.83925 8.156694,-6.56564 19.698374,-10.69551 6.77849,-2.4255 7.33327,-2.77991 3.63343,-2.3211 -4.86438,0.60323 -21.97241,6.91006 -23.81763,8.78032 -1.581896,1.60336 -2.787402,6.70026 -1.584728,6.70026 0.521341,0 1.453091,-1.10879 2.070554,-2.46397 z m -48.801631,-1.01918 c 0,-1.95882 -1.003006,-2.98999 -4.75,-4.88342 -4.796453,-2.42374 -17.798789,-6.78553 -24.25,-8.13495 -5.720802,-1.19664 -2.797809,0.41454 4.579495,2.52426 9.347991,2.67328 21.015319,8.35165 22.373147,10.88877 1.470603,2.74785 2.047358,2.63667 2.047358,-0.39466 z m 19.060129,-8.14906 c 5.00986,-0.37411 11.262024,-0.16871 15.074728,0.49524 6.325574,1.10155 6.672018,1.04928 11.939871,-1.80162 7.449947,-4.03181 21.663727,-8.65679 32.310637,-10.51346 16.31008,-2.84424 45.02891,-1.32648 55.18353,2.91639 3.39373,1.41799 3.43111,1.40541 3.43111,-1.15512 0,-1.4238 0.69945,-3.10019 1.55435,-3.7253 1.38865,-1.01541 1.2887,-1.98659 -0.93756,-9.11024 -1.37055,-4.38552 -3.44549,-12.08502 -4.61098,-17.10999 -2.8088,-12.11007 -3.18534,-12.55065 -9.50581,-11.12252 -2.88368,0.65158 -14.84096,1.15708 -28.2501,1.1943 -12.78756,0.0355 -23.25006,0.22048 -23.25,0.41108 5e-5,0.1906 1.8001,2.39146 4.0001,4.89079 7.76947,8.82659 5.26106,10.65503 -12.67379,9.23821 -32.131715,-2.53834 -58.40339,-9.50621 -84.826215,-22.49793 -8.25,-4.0564 -18.7636008,-10.11416 -23.3635577,-13.46169 l -8.3635579,-6.08641 -3.3448156,3.78524 c -1.8396485,2.08188 -3.3635474,4.08391 -3.386442,4.44895 -0.064924,1.03517 -15.0067198,13.12009 -20.2196478,16.35364 -3.773129,2.34046 -4.793542,3.5866 -5.27523,6.4422 -0.328465,1.94725 -2.03205,9.80839 -3.785744,17.4692 -2.346265,10.24939 -2.867912,14.03562 -1.97477,14.33333 0.667571,0.22252 1.213765,1.76957 1.213765,3.43789 0,2.66832 0.270728,2.9564 2.25,2.39425 13.438062,-3.81665 15.53826,-4.05576 35.2500002,-4.01328 18.6498238,0.0402 20.6750878,0.22865 29.9999998,2.79154 5.5,1.51164 14.05,4.72356 19,7.13761 5.817806,2.83725 9.883943,4.23142 11.5,3.94305 1.375,-0.24537 6.352058,-0.73377 11.060129,-1.08535 z m 60.669036,-4.97195 c -0.33229,-0.3323 -1.19479,-0.36782 -1.91666,-0.0789 -0.79774,0.31922 -0.56078,0.55618 0.60416,0.60416 1.05417,0.0434 1.64479,-0.19292 1.3125,-0.52521 z M -40.382455,165.92632 c 2.821885,-1.32492 7.710159,-2.93744 10.86283,-3.58337 5.930084,-1.21498 6.024637,-1.2881 15.29981,-11.83116 13.1576713,-14.95629 37.676763,-26.83735 63.46806,-30.75432 10.482458,-1.59198 41.204769,-1.93984 47.254371,-0.53504 2.553783,0.59303 5.549804,2.66726 9.368904,6.48636 4.51213,4.51212 8.38916,6.96922 19.74563,12.51396 20.72252,10.11765 34.32691,14.03021 48.89775,14.06279 7.38788,0.0165 8.29316,0.28141 18.56223,5.43155 15.0621,7.55392 23.5817,10.00914 32.21901,9.28502 7.45995,-0.62542 11.18569,-2.15358 14.87271,-6.10025 3.26272,-3.49248 2.14897,-4.15715 -3.61641,-2.15821 -7.47351,2.59118 -16.81977,3.05764 -24.06215,1.20091 -8.2826,-2.12341 -23.31429,-9.29449 -43.36888,-20.68974 -18.51343,-10.51954 -28.98907,-15.58441 -39.87316,-19.27827 -25.79631,-8.7548 -62.321154,-10.50387 -89.804156,-4.30046 -21.615796,4.87907 -37.6263052,13.87485 -52.053957,29.2474 -8.905865,9.48914 -8.950336,9.51982 -16.548284,11.41851 -11.357565,2.83821 -15.99747,5.73538 -22.636353,14.13419 -5.631307,7.12414 -4.923762,8.88883 1.162045,2.89827 2.815615,-2.77156 7.428115,-6.12322 10.25,-7.44814 z"
         id="path104" /><path
         style="fill:#425e92"
         d="m 58.248245,495.83267 c -25.231428,-7.40733 -47.851693,-18.9902 -67.541519,-34.58513 -10.233151,-8.10495 -26.275249,-25.62652 -32.219941,-35.19139 -8.388904,-13.49755 -13.237932,-25.5549 -14.259575,-35.45713 -0.470214,-4.55753 -1.134399,-8.7386 -1.475966,-9.29127 -0.341568,-0.55266 -2.281975,-1.01225 -4.312016,-1.0213 -11.56663,-0.0516 -20.787296,-13.65823 -25.782253,-38.04617 -2.147482,-10.4851 -2.419362,-28.67958 -0.525955,-35.19743 1.57836,-5.43333 7.918724,-13.22233 11.493526,-14.11955 3.242632,-0.81384 3.510462,-1.96684 2.350877,-10.1204 -0.54754,-3.85 -1.034154,-19.375 -1.081363,-34.5 -0.09065,-29.0435 0.790081,-37.90527 5.46622,-55 4.392417,-16.05751 13.160788,-29.96842 23.267684,-36.91387 4.034084,-2.77222 10.125412,-5.15453 18.120281,-7.08681 3.161565,-0.76412 5.025392,-2.23968 8.89193,-7.03959 9.272151,-11.51041 26.4227146,-23.01416 43.072233,-28.89071 31.251292,-11.03033 76.319802,-10.55997 109.475552,1.14256 9.62962,3.39883 25.67307,11.22589 40.56029,19.78799 13.31619,7.65856 29.74106,15.84146 36.40655,18.13781 6.67223,2.29867 17.09276,2.42293 23.38526,0.27886 4.32174,-1.47257 7.2902,-4.12717 11.83037,-10.57954 l 1.62217,-2.3054 2.12409,3.48435 c 3.93243,6.45078 2.46091,30.98334 -2.95365,49.24182 -2.99751,10.10792 -12.10314,27.24729 -19.09466,35.94153 l -6.19118,7.699 0.13814,27.75497 0.13814,27.75498 3.49371,1.79238 c 8.03319,4.12128 11.60178,12.7995 11.59969,28.2086 -0.003,21.23886 -5.89417,41.93528 -14.7168,51.70087 -4.43528,4.90933 -8.0787,6.8902 -12.67316,6.8902 -1.91985,0 -3.81146,0.51909 -4.20356,1.15353 -0.39211,0.63444 -1.0489,4.83969 -1.45954,9.345 -1.45842,16.00105 -13.13438,37.29042 -30.20884,55.08131 -14.32436,14.92541 -27.11463,24.65793 -45.11776,34.33154 -16.49259,8.86195 -45.973834,19.1543 -54.542403,19.04157 -1.967115,-0.0259 -8.751572,-1.56631 -15.076572,-3.42318 z m -8.786763,-48.0539 c 14.475503,-6.87439 34.089409,-6.81169 48.938218,0.15642 6.541,3.06951 8.40293,3.53468 11.90602,2.97451 8.71083,-1.39292 13.93142,-6.55097 13.93879,-13.77181 0.003,-3.11546 -0.70851,-4.2978 -4.74626,-7.88514 -9.34923,-8.30629 -20.347681,-11.66587 -34.250005,-10.46199 -10.616,0.9193 -13.390866,0.91834 -24.11365,-0.008 -13.547628,-1.17081 -23.46536,1.97224 -33.13635,10.50132 -3.946611,3.48062 -4.75,4.77514 -4.75,7.65382 0,6.34767 3.204795,10.60384 9.740524,12.93604 5.773552,2.06023 8.436438,1.72159 16.472713,-2.09482 z m 17.383833,-13.74232 c -2.146612,-1.22845 -3.834112,-2.68355 -3.75,-3.23355 0.09076,-0.59346 4.42155,-1 10.65293,-1 6.221169,0 10.568562,0.40751 10.668246,1 0.23692,1.40817 -8.075198,5.50335 -11.130136,5.48355 -1.39596,-0.009 -4.294428,-1.02155 -6.44104,-2.25 z m -55.31473,-17.00428 c 13.031063,-13.12687 26.311555,-18.2927 45.71766,-17.78317 13.67702,0.35911 17.849677,0.35654 33,-0.0203 19.514705,-0.4854 32.685965,4.67518 45.893085,17.9812 l 7.39308,7.44844 3.36347,-3.92771 c 1.84991,-2.16025 4.04584,-4.72553 4.87984,-5.70064 1.16686,-1.36428 1.9569,-1.53715 3.4277,-0.75 2.78681,1.49146 2.75326,1.51443 6.62124,-4.53221 3.2074,-5.01397 3.85843,-5.52541 6.68297,-5.25 2.88194,0.281 3.34234,-0.11809 5.82245,-5.04704 1.48118,-2.94369 3.7033,-5.86869 4.93805,-6.5 1.23475,-0.6313 2.97245,-2.99911 3.86156,-5.26178 1.90439,-4.84646 3.85449,-7.38605 5.67161,-7.38605 0.72059,0 1.55391,-0.7875 1.85182,-1.75 2.17386,-7.02347 5.54371,-41.75924 5.5783,-57.5 0.0119,-5.39503 -0.29193,-6.75 -1.51331,-6.75 -1.32027,0 -1.44153,1.59831 -0.89144,11.75 1.31368,24.24375 -6.29018,40.53278 -22.46041,48.11484 -5.2795,2.4755 -6.49856,2.63267 -20.12001,2.59407 -16.35567,-0.0464 -23.03256,-1.37446 -34.5,-6.86245 -3.85,-1.84249 -8.93161,-5.03187 -11.29246,-7.08749 -4.71299,-4.10366 -12.604066,-16.7161 -14.395755,-23.00897 -1.863464,-6.54496 -2.624582,-6.9276 -14.59483,-7.33731 -6.059317,-0.2074 -12.556291,0.12087 -14.904012,0.75304 -3.536801,0.95237 -4.264946,1.60622 -4.847033,4.3525 -1.265268,5.96953 -8.531985,18.51213 -13.74611,23.72625 -5.591164,5.59117 -15.390484,10.82494 -25.219805,13.46979 -3.316518,0.8924 -12.0378328,1.85995 -19.4999998,2.16335 -11.9979362,0.48782 -14.1562962,0.31685 -19.3985552,-1.53661 -11.964805,-4.2303 -18.832023,-11.98027 -23.697646,-26.74389 l -2.91573,-8.84712 0.561028,8.5 c 0.538234,8.15466 3.026128,26.59865 4.080395,30.25 0.277906,0.9625 1.094859,1.75 1.815451,1.75 1.817119,0 3.767222,2.53959 5.671615,7.38605 0.889107,2.26267 2.661075,4.64756 3.937707,5.29975 1.276631,0.65219 3.512107,3.57719 4.967724,6.5 2.430592,4.88052 2.899541,5.2893 5.746298,5.00907 2.789082,-0.27455 3.455843,0.25158 6.653296,5.25 3.867987,6.04664 3.834432,6.02367 6.6212404,4.53221 2.0500444,-1.09715 1.944882,-1.17881 8.07795941,6.27292 1.69752099,2.0625 3.27933829,3.75 3.51514959,3.75 0.2358112,0 3.6766947,-3.27183 7.6464076,-7.27073 z M -57.461037,366.8029 c 0.434895,-3.3 0.646076,-17.25 0.469292,-31 -0.259893,-20.21416 -0.625884,-25.67002 -1.911839,-28.5 -1.890431,-4.16024 -5.28233,-7.46293 -9.18202,-8.94051 -3.725073,-1.41143 -8.89272,0.95301 -11.577637,5.29729 -10.502241,16.99299 3.630767,70.86478 18.220447,69.45218 3.096528,-0.29981 3.214459,-0.48666 3.981757,-6.30896 z m 272.350287,3.25 c 4.25015,-3.72258 9.21083,-13.69474 12.34543,-24.81727 3.0128,-10.69034 3.86329,-29.85837 1.62396,-36.60035 -4.30219,-12.95268 -15.74214,-14.42515 -21.59864,-2.78003 -2.38084,4.73409 -2.50436,5.89065 -2.86168,26.79412 -0.2054,12.01556 -0.0562,26.07806 0.33156,31.25 l 0.70501,9.40353 h 2.87188 c 1.81226,0 4.24096,-1.19914 6.58248,-3.25 z M -46.416537,322.61606 c 0.646114,-6.91909 0.230153,-8.82117 -1.374278,-6.2842 -1.169982,1.85001 -1.260473,12.97104 -0.105545,12.97104 0.470468,0 1.136388,-3.00908 1.479823,-6.68684 z m 145.466413,-5.77713 c 1.293654,-2.83925 8.156694,-6.56564 19.698374,-10.69551 6.77849,-2.4255 7.33327,-2.77991 3.63343,-2.3211 -4.86438,0.60323 -21.97241,6.91006 -23.81763,8.78032 -1.581896,1.60336 -2.787402,6.70026 -1.584728,6.70026 0.521341,0 1.453091,-1.10879 2.070554,-2.46397 z m -48.801631,-1.01918 c 0,-1.95882 -1.003006,-2.98999 -4.75,-4.88342 -4.796453,-2.42374 -17.798789,-6.78553 -24.25,-8.13495 -5.720802,-1.19664 -2.797809,0.41454 4.579495,2.52426 9.347991,2.67328 21.015319,8.35165 22.373147,10.88877 1.470603,2.74785 2.047358,2.63667 2.047358,-0.39466 z m 19.060129,-8.14906 c 5.00986,-0.37411 11.262024,-0.16871 15.074728,0.49524 6.325574,1.10155 6.672018,1.04928 11.939871,-1.80162 7.449947,-4.03181 21.663727,-8.65679 32.310637,-10.51346 16.31008,-2.84424 45.02891,-1.32648 55.18353,2.91639 3.39373,1.41799 3.43111,1.40541 3.43111,-1.15512 0,-1.4238 0.69945,-3.10019 1.55435,-3.7253 1.38865,-1.01541 1.2887,-1.98659 -0.93756,-9.11024 -1.37055,-4.38552 -3.44549,-12.08502 -4.61098,-17.10999 -2.8088,-12.11007 -3.18534,-12.55065 -9.50581,-11.12252 -2.88368,0.65158 -14.84096,1.15708 -28.2501,1.1943 -12.78756,0.0355 -23.25006,0.22048 -23.25,0.41108 5e-5,0.1906 1.8001,2.39146 4.0001,4.89079 7.76947,8.82659 5.26106,10.65503 -12.67379,9.23821 -32.131715,-2.53834 -58.40339,-9.50621 -84.826215,-22.49793 -8.25,-4.0564 -18.7636008,-10.11416 -23.3635577,-13.46169 l -8.3635579,-6.08641 -3.3448156,3.78524 c -1.8396485,2.08188 -3.3635474,4.08391 -3.386442,4.44895 -0.064924,1.03517 -15.0067198,13.12009 -20.2196478,16.35364 -3.773129,2.34046 -4.793542,3.5866 -5.27523,6.4422 -0.328465,1.94725 -2.03205,9.80839 -3.785744,17.4692 -2.346265,10.24939 -2.867912,14.03562 -1.97477,14.33333 0.667571,0.22252 1.213765,1.76957 1.213765,3.43789 0,2.66832 0.270728,2.9564 2.25,2.39425 13.438062,-3.81665 15.53826,-4.05576 35.2500002,-4.01328 18.6498238,0.0402 20.6750878,0.22865 29.9999998,2.79154 5.5,1.51164 14.05,4.72356 19,7.13761 5.817806,2.83725 9.883943,4.23142 11.5,3.94305 1.375,-0.24537 6.352058,-0.73377 11.060129,-1.08535 z m 60.669036,-4.97195 c -0.33229,-0.3323 -1.19479,-0.36782 -1.91666,-0.0789 -0.79774,0.31922 -0.56078,0.55618 0.60416,0.60416 1.05417,0.0434 1.64479,-0.19292 1.3125,-0.52521 z M -40.382455,165.92632 c 2.821885,-1.32492 7.710159,-2.93744 10.86283,-3.58337 5.930084,-1.21498 6.024637,-1.2881 15.29981,-11.83116 13.1576713,-14.95629 37.676763,-26.83735 63.46806,-30.75432 10.482458,-1.59198 41.204769,-1.93984 47.254371,-0.53504 2.553783,0.59303 5.549804,2.66726 9.368904,6.48636 4.51213,4.51212 8.38916,6.96922 19.74563,12.51396 20.72252,10.11765 34.32691,14.03021 48.89775,14.06279 7.38788,0.0165 8.29316,0.28141 18.56223,5.43155 15.0621,7.55392 23.5817,10.00914 32.21901,9.28502 7.45995,-0.62542 11.18569,-2.15358 14.87271,-6.10025 3.26272,-3.49248 2.14897,-4.15715 -3.61641,-2.15821 -7.47351,2.59118 -16.81977,3.05764 -24.06215,1.20091 -8.2826,-2.12341 -23.31429,-9.29449 -43.36888,-20.68974 -18.51343,-10.51954 -28.98907,-15.58441 -39.87316,-19.27827 -25.79631,-8.7548 -62.321154,-10.50387 -89.804156,-4.30046 -21.615796,4.87907 -37.6263052,13.87485 -52.053957,29.2474 -8.905865,9.48914 -8.950336,9.51982 -16.548284,11.41851 -11.357565,2.83821 -15.99747,5.73538 -22.636353,14.13419 -5.631307,7.12414 -4.923762,8.88883 1.162045,2.89827 2.815615,-2.77156 7.428115,-6.12322 10.25,-7.44814 z"
         id="path103" /><path
         style="fill:#4d4c70"
         d="m 67.748245,497.57839 c -5.98015,-1.47264 -26.826557,-8.48799 -32,-10.76882 -39.4591389,-17.39649 -67.705501,-42.55396 -83.093366,-74.00667 -5.402044,-11.04175 -7.406634,-18.0934 -7.406634,-26.0547 0,-6.50629 -0.656567,-7.4453 -5.205859,-7.4453 -12.127585,0 -20.927885,-12.27641 -25.824193,-36.02472 -2.699863,-13.095 -2.98705,-30.37965 -0.611295,-36.79135 2.412346,-6.51045 5.126201,-9.72153 10.252868,-12.13134 l 4.642553,-2.18226 -0.622163,-4.53918 c -1.596566,-11.64822 -2.783464,-39.09735 -2.197934,-50.83115 0.895207,-17.93961 2.24081,-28.29652 5.194178,-39.97881 6.629416,-26.2232 18.722902,-41.0156 36.82467,-45.04286 7.333687,-1.63159 7.497012,-1.73837 14.469076,-9.45982 19.7256867,-21.84586 46.549615,-33.28307 83.578099,-35.63609 11.131967,-0.7074 33.249767,0.85376 45.797885,3.23259 18.19119,3.44861 37.25838,11.37623 62.70212,26.06984 29.11364,16.81295 42.30658,21.53632 53.9691,19.32215 7.684,-1.45884 12.07375,-4.00383 15.40653,-8.93206 2.65397,-3.92446 3.00085,-4.12703 4.5,-2.62787 1.33142,1.33141 1.62038,3.91735 1.60228,14.33865 -0.0486,27.9707 -8.52289,51.75924 -25.90333,72.71428 l -4.14708,5 0.11785,28.39189 0.11785,28.39189 3.54735,1.8199 c 10.31165,5.29019 13.92084,19.18779 10.75058,41.39632 -3.89495,27.28519 -13.87729,43.5 -26.77994,43.5 -4.74841,0 -4.68845,-0.12717 -5.64558,11.97354 -1.43294,18.11638 -19.30175,46.51957 -41.06685,65.27741 -20.84985,17.96905 -47.34734,31.72937 -76.448665,39.70029 -7.185917,1.96824 -12.254918,2.37457 -16.5201,1.32425 z m -17.288797,-50.02549 7.156948,-3.75 h 16.065925 16.065924 l 7.574594,3.75 c 10.971371,5.43166 17.956041,4.77913 24.326951,-2.2727 5.26434,-5.82699 5.0444,-9.93467 -0.83348,-15.56667 -6.4594,-6.18919 -12.1638,-9.16446 -21.123161,-11.0173 -5.880974,-1.21621 -9.755229,-1.43717 -14.942232,-0.8522 -8.049704,0.90781 -15.061005,0.89875 -25.002672,-0.0323 -12.380099,-1.15941 -23.434787,2.78103 -33.291711,11.86683 -4.179122,3.85218 -4.391333,4.30802 -3.926284,8.43392 0.359106,3.18599 1.3914,5.28999 3.82976,7.80573 6.291878,6.49158 13.851356,7.00434 24.099438,1.63469 z m 16.870551,-13.45633 c -2.430035,-1.26152 -4.455035,-2.74367 -4.5,-3.29367 -0.04854,-0.59371 4.285803,-1.11531 10.668246,-1.28383 9.040179,-0.23869 10.75,-0.0439 10.75,1.22432 0,1.79787 -4.224096,4.14377 -9.034555,5.01745 -2.564688,0.4658 -4.613859,0.0332 -7.883691,-1.66427 z M 9.1020196,419.87349 c 3.9822244,-4.99053 13.3051244,-12.13074 20.6462254,-15.81251 7.428432,-3.72557 16.475094,-5.03899 29.5,-4.2829 15.214003,0.88316 14.024613,0.88389 27.542168,-0.017 13.142075,-0.87585 22.018387,0.40365 30.848287,4.4467 7.68523,3.51893 17.06004,10.71428 21.6049,16.5822 1.92245,2.48209 3.83213,4.51289 4.24373,4.51289 0.4116,0 2.1168,-1.9125 3.78933,-4.25 5.76525,-8.05741 5.87589,-8.14658 7.86958,-6.34231 0.96772,0.87577 2.02897,1.59231 2.35834,1.59231 0.32937,0 2.23902,-2.7 4.24367,-6 3.80314,-6.26065 4.40364,-6.65712 7.54042,-4.97836 1.67761,0.89783 2.27501,0.29646 4.92965,-4.96235 1.66139,-3.29119 3.96439,-6.48903 5.11779,-7.10631 1.1534,-0.61728 3.14982,-3.50275 4.4365,-6.41215 1.6365,-3.70043 3.05134,-5.46851 4.70887,-5.88452 2.14946,-0.53948 2.49143,-1.45642 3.68309,-9.8755 0.72249,-5.10444 1.69764,-11.12123 2.16699,-13.37064 1.20963,-5.79724 3.33673,-40.87318 2.59575,-42.80412 -0.33896,-0.88333 -1.47631,-1.60605 -2.52744,-1.60605 -1.79834,0 -1.8801,0.65516 -1.38509,11.0989 0.73864,15.58371 -0.94276,25.83813 -5.59734,34.13679 -4.09442,7.29995 -7.10895,10.15805 -15.16919,14.38203 -4.89402,2.56471 -6.71198,2.92272 -16.5,3.24935 -20.40448,0.68088 -37.65782,-3.92377 -48.49502,-12.94258 -3.18898,-2.6539 -6.68769,-6.08509 -7.774905,-7.62488 -3.696458,-5.23515 -8.23008,-15.23251 -8.23008,-18.14865 0,-1.59834 -0.658702,-3.45274 -1.463783,-4.1209 -2.240652,-1.85958 -20.400757,-2.54431 -27.503409,-1.03702 -5.476249,1.16214 -6.039826,1.52135 -6.108886,3.89361 -0.04184,1.43734 -0.604343,3.96335 -1.25,5.61335 -8.993367,22.98287 -28.689133,34.34368 -59.7424205,34.46031 -12.6202325,0.0474 -18.4345855,-1.45671 -25.9808815,-6.72094 -10.946369,-7.63611 -15.279976,-19.99721 -15.098129,-43.06562 0.07919,-10.04625 -0.19388,-13.22662 -1.109459,-12.92142 -3.349809,1.1166 -2.754999,24.10479 1.326013,51.24767 2.105294,14.00235 2.949674,16.5 5.578151,16.5 0.771268,0 1.870234,1.23075 2.442145,2.73499 2.357198,6.1999 4.146033,9.0933 5.906526,9.55368 1.032858,0.2701 3.240931,3.21845 4.958419,6.62077 2.724201,5.39661 3.32578,6.01104 5.005289,5.1122 3.128659,-1.67441 3.779327,-1.27071 7.217995,4.47836 3.492256,5.83866 3.866353,6.08205 6.8742249,4.47228 2.1141055,-1.13143 2.4920549,-0.80798 7.91978652,6.77772 1.67252998,2.3375 3.38044288,4.25 3.79536188,4.25 0.414919,0 2.7039931,-2.44323 5.0868313,-5.42941 z M -56.618639,367.3029 c 1.081809,-11.1066 0.923393,-47.01168 -0.236815,-53.67408 -1.30243,-7.47911 -4.124924,-12.10578 -8.987252,-14.73202 -9.450339,-5.10431 -17.916335,5.28452 -17.905027,21.97171 0.01023,15.10303 6.003282,37.99277 12.248933,46.78336 2.816522,3.96417 7.687353,6.74585 11.247045,6.42307 2.923296,-0.26508 3.016188,-0.43823 3.633116,-6.77204 z m 269.493139,5.71457 c 5.42363,-3.0981 11.75344,-15.04726 14.94607,-28.21457 2.01845,-8.32466 2.9819,-30.88943 1.54317,-36.14224 -1.31562,-4.80334 -7.88039,-11.35982 -11.36838,-11.35402 -3.00473,0.005 -8.23965,3.29213 -10.33451,6.4893 -0.93284,1.42369 -2.06997,4.48268 -2.52695,6.79774 -0.93226,4.72278 -1.24223,61.32325 -0.3438,62.77695 0.80696,1.30568 5.54253,1.09881 8.0844,-0.35316 z M 11.069164,348.0529 c 4.905025,-3.88587 9.179081,-9.44749 9.179081,-11.94428 0,-0.99314 -0.234648,-1.80572 -0.52144,-1.80572 -1.718691,0 -8.889151,5.87043 -11.9161265,9.75568 -5.8924309,7.5632 -4.0685396,9.79896 3.2584855,3.99432 z m 142.260316,-0.20232 c 4.24232,-3.35707 9.91877,-10.06768 9.91877,-11.72582 0,-0.45202 -0.68334,-0.82186 -1.51852,-0.82186 -1.97777,0 -14.48148,12.50371 -14.48148,14.48148 0,2.27639 1.27195,1.87191 6.08123,-1.9338 z M -6.1366135,343.13985 c 8.4166116,-6.31075 19.3848585,-18.90359 19.3848585,-22.25611 0,-1.35288 -0.369089,-1.45367 -2.042877,-0.55789 -5.1524156,2.75749 -22.957123,21.65101 -22.957123,24.36103 0,1.30785 2.8576125,0.52055 5.6151415,-1.54703 z M 139.46078,340.99392 c 6.00814,-4.89628 16.78747,-17.31749 16.78747,-19.34448 0,-2.42856 -2.41295,-1.40338 -8.03163,3.41235 -7.44596,6.38188 -16.96837,17.25541 -16.96837,19.37597 0,1.96681 3.24089,0.60777 8.21253,-3.44384 z M 100.2265,317.34354 c 1.49533,-2.79406 8.63787,-6.24492 20.53736,-9.92247 12.80914,-3.95868 20.79906,-5.05892 37.48439,-5.16175 10.98198,-0.0677 13.0337,-0.297 11,-1.22951 -1.58135,-0.72509 -9.29803,-1.16113 -21,-1.18661 -20.05576,-0.0437 -22.29667,0.3285 -39.46943,6.55533 -12.521954,4.54046 -13.531966,5.74343 -13.524998,16.10892 0.0031,4.5625 0.543563,10.09545 1.201102,12.29545 1.175878,3.93426 1.207708,3.84045 1.936771,-5.70802 0.407685,-5.3394 1.233347,-10.62751 1.834805,-11.75134 z m -48.264576,10.18035 c 0.299748,-3.30569 0.233015,-8.09078 -0.148296,-10.63355 -0.660652,-4.40554 -0.961006,-4.75809 -6.379338,-7.48783 -14.894563,-7.50385 -30.482373,-10.53339 -50.760289,-9.86544 -20.043056,0.66022 -25.031738,2.61421 -6.899521,2.70245 17.0990941,0.0832 27.632466,1.483 39.364029,5.23114 11.831072,3.77994 18.679546,7.15991 20.177113,9.95814 0.626553,1.17072 1.383661,5.69538 1.682461,10.05479 0.628627,9.17147 2.133999,9.19194 2.963841,0.0403 z m -63.867355,1.77537 c 4.3742811,-3.16871 10.1536762,-10.36694 10.1536762,-12.6464 0,-2.59999 -2.8867235,-1.30618 -8.4691092,3.7958 -5.597735,5.11602 -9.022069,10.02973 -7.824342,11.22746 1.048095,1.04809 1.829205,0.74571 6.139775,-2.37686 z M 135.45671,324.3029 c 4.77114,-5.38547 6.1122,-7.68378 4.91513,-8.42361 -2.0648,-1.27612 -15.12359,11.77754 -15.12359,15.11765 0,2.22788 5.4986,-1.37775 10.20846,-6.69404 z m -45.208465,-8.27475 c 0,-1.72114 -6.01221,-2.91522 -15,-2.97915 -10.993306,-0.0782 -18,0.93069 -18,2.5918 0,0.83585 4.632272,1.1621 16.5,1.1621 9.075,0 16.5,-0.34864 16.5,-0.77475 z m -25.216659,-7.88018 c 6.244171,-0.87253 10.575523,-0.87578 17.594455,-0.0132 l 9.311115,1.14427 5.730575,-3.10381 c 17.676149,-9.57381 45.949209,-13.98482 69.258159,-10.80528 8.9385,1.21929 18.01342,3.62408 18.86289,4.99855 1.39309,2.25407 2.64868,0.75655 2.04842,-2.44312 -0.53127,-2.83188 -0.30977,-3.46221 1.37109,-3.90177 1.97548,-0.5166 1.96867,-0.62363 -0.46692,-7.33852 -1.3594,-3.74786 -2.96974,-9.30456 -3.57854,-12.34823 -0.60879,-3.04367 -1.48981,-7.10895 -1.95782,-9.03395 -0.468,-1.925 -1.23068,-5.075 -1.69483,-7 -0.46416,-1.925 -1.27548,-3.48706 -1.80293,-3.47125 -0.52745,0.0158 -4.784,0.63015 -9.459,1.36522 -5.7797,0.90875 -15.14082,1.21959 -29.25023,0.97125 -11.41263,-0.20087 -20.75013,-0.18689 -20.75,0.0311 1.2e-4,0.21796 2.05489,2.5929 4.56615,5.27764 3.13134,3.34765 4.46667,5.5796 4.25,7.1037 -0.30766,2.16423 -0.60367,2.2144 -11.31592,1.9181 C 103.80729,271.11303 89.718926,269.1037 73.504282,265.18842 52.890735,260.21096 37.885645,254.48128 20.748245,245.04358 10.589461,239.44906 6.434048,236.58832 0.93152072,231.40099 -2.7769005,227.905 -2.9231454,227.85965 -4.2223058,229.8029 c -5.2136798,7.79848 -16.3375882,18.14048 -26.1729992,24.33328 -5.036043,3.1709 -5.168543,3.37893 -6.339341,9.95266 -0.657685,3.69273 -2.338125,11.62803 -3.734312,17.63398 -2.35509,10.13087 -2.417588,11.00835 -0.864923,12.14369 1.183358,0.86529 1.481982,1.98722 1.019454,3.83008 -0.763404,3.04164 -0.06475,3.18424 5.076364,1.03614 9.451967,-3.94928 35.24477134,-5.66085 50.794755,-3.37066 9.418669,1.38717 27.876247,7.27838 34.191553,10.91311 5.959717,3.43007 4.989629,3.3112 15.283341,1.87279 z M -56.22053,182.36042 c 7.034795,-10.67815 13.693945,-15.68157 24.084381,-18.09605 8.483732,-1.97142 9.957391,-2.91169 17.373905,-11.08553 14.60398428,-16.09523 31.618942,-25.42983 56.510489,-31.00227 10.114335,-2.26428 39.448479,-3.64763 51.035637,-2.40675 6.11613,0.65498 7.121642,1.08598 9.886488,4.23772 7.66496,8.73757 23.05551,17.15447 44.72552,24.45986 10.85401,3.6591 13.73074,4.22072 23.71578,4.63004 l 11.36342,0.46582 11.73901,5.84409 c 17.02649,8.47639 25.91529,10.3538 37.03415,7.82199 8.27111,-1.88336 16.67825,-9.19933 14.11735,-12.28504 -0.92581,-1.11553 -1.94447,-0.95365 -5.89448,0.93676 -7.81827,3.74169 -16.48584,4.81071 -24.85556,3.06557 -8.27761,-1.72593 -25.89475,-10.07965 -50.86731,-24.12031 -31.08594,-17.47788 -49.18668,-22.75091 -83.000005,-24.17924 -27.849906,-1.17643 -52.460206,4.12485 -73.2676083,15.78249 -5.7022673,3.19477 -10.6635999,7.28393 -18.8968567,15.57491 l -11.164465,11.24273 -7.835535,2.0907 c -9.759442,2.60404 -14.953336,5.59106 -20.342845,11.69919 -6.18751,7.01253 -13.390123,22.2658 -10.513942,22.2658 0.263311,0 2.536926,-3.12412 5.052477,-6.94248 z"
         id="path102" /><path
         style="fill:#3b416f"
         d="M 63.748245,496.39112 C 43.85955,490.94129 19.628326,480.10345 4.2482452,469.7787 -19.356539,453.93265 -36.467601,435.03649 -47.345121,412.8029 c -5.402044,-11.04175 -7.406634,-18.0934 -7.406634,-26.0547 0,-6.50629 -0.656567,-7.4453 -5.205859,-7.4453 -12.127585,0 -20.927885,-12.27641 -25.824193,-36.02472 -2.699863,-13.095 -2.98705,-30.37965 -0.611295,-36.79135 2.412346,-6.51045 5.126201,-9.72153 10.252868,-12.13134 l 4.642553,-2.18226 -0.622163,-4.53918 c -1.596566,-11.64822 -2.783464,-39.09735 -2.197934,-50.83115 0.895207,-17.93961 2.24081,-28.29652 5.194178,-39.97881 6.629416,-26.2232 18.722902,-41.0156 36.82467,-45.04286 7.333687,-1.63159 7.497012,-1.73837 14.469076,-9.45982 19.7256867,-21.84586 46.549615,-33.28307 83.578099,-35.63609 11.131967,-0.7074 33.249767,0.85376 45.797885,3.23259 18.19119,3.44861 37.25838,11.37623 62.70212,26.06984 29.11364,16.81295 42.30658,21.53632 53.9691,19.32215 7.684,-1.45884 12.07375,-4.00383 15.40653,-8.93206 2.65397,-3.92446 3.00085,-4.12703 4.5,-2.62787 1.33142,1.33141 1.62038,3.91735 1.60228,14.33865 -0.0486,27.9707 -8.52289,51.75924 -25.90333,72.71428 l -4.14708,5 0.11785,28.39189 0.11785,28.39189 3.54735,1.8199 c 10.31165,5.29019 13.92084,19.18779 10.75058,41.39632 -3.89495,27.28519 -13.87729,43.5 -26.77994,43.5 -4.74841,0 -4.68845,-0.12717 -5.64558,11.97354 -1.45514,18.39704 -20.03465,47.55664 -42.15222,66.15578 -17.99453,15.13199 -40.87543,27.65281 -64.855583,35.49009 -16.797246,5.48973 -21.66616,6.03406 -31.027812,3.46881 z m 27,-6.57917 c 15.072785,-5.00349 22.181405,-7.81595 31.101785,-12.30512 13.0413,-6.56301 35.48955,-22.20393 31.86765,-22.20393 -0.46229,0 -1.76954,0.83398 -2.90498,1.85329 -16.43616,14.75498 -65.246172,35.44926 -79.835631,33.8484 -7.910519,-0.868 -26.693529,-7.19736 -41.099923,-13.84955 -7.079105,-3.2688 -13.075581,-5.73879 -13.325503,-5.48887 -0.563638,0.56364 10.455205,6.75882 17.196602,9.66854 18.815881,8.12129 35.982223,13.1014 42.5,12.32963 2.475,-0.29306 9,-2.02664 14.5,-3.85239 z m -46.198283,-24.25905 7.198283,-3.75 h 21.5 21.5 l 7.574595,3.75 c 8.61371,4.26444 10.91584,4.50542 17.85449,1.86894 5.8327,-2.21625 20.04953,-13.95884 29.31932,-24.2167 6.02692,-6.66934 6.56954,-7.03288 8.60226,-5.76343 2.00675,1.25324 2.46304,1.01745 6.08011,-3.14194 2.1508,-2.47328 4.89595,-6.44568 6.10033,-8.82755 1.88233,-3.72262 2.52652,-4.24618 4.58792,-3.7288 2.03625,0.51107 2.84467,-0.10223 5.35734,-4.06431 1.62757,-2.56641 3.68488,-6.85095 4.5718,-9.5212 1.30898,-3.94098 2.04766,-4.85501 3.92362,-4.85501 1.73855,0 2.68404,-0.93217 3.81669,-3.76295 1.76314,-4.40652 6.06641,-24.2155 5.40436,-24.87755 -0.24902,-0.24902 -0.77302,1.25573 -1.16446,3.34387 -1.22668,6.54382 -3.16561,10.10795 -5.69365,10.46598 -1.70738,0.24181 -2.98387,1.73737 -4.7506,5.56591 -1.32873,2.87939 -3.16188,5.47203 -4.07366,5.76142 -0.91178,0.28939 -3.51928,3.44602 -5.79445,7.01474 -3.43589,5.3894 -4.599,6.48858 -6.86592,6.48858 -1.99235,0 -3.97693,1.35004 -7.35009,5 -3.07699,3.32949 -5.42325,5 -7.02256,5 -1.46856,0 -4.03629,1.60419 -6.60861,4.12873 -5.37459,5.27476 -7.18983,4.82607 -13.89783,-3.43522 -5.94178,-7.31766 -15.29487,-13.78801 -24.40991,-16.88649 -5.29335,-1.79936 -8.68654,-2.21737 -17.561095,-2.16333 -10.526092,0.0641 -14.807981,0.0617 -38.5,-0.0216 -19.405249,-0.0683 -30.895453,5.88182 -45.7433863,23.68765 -1.2338626,1.47967 -2.931417,2.6903 -3.7723431,2.6903 -0.8409261,0 -3.5675928,-1.87915 -6.0592593,-4.17589 -2.7119961,-2.49983 -5.5766138,-4.22169 -7.137182,-4.29 -1.7717563,-0.0776 -3.9346113,-1.62298 -6.7514603,-4.82411 -2.895156,-3.29012 -4.910563,-4.71 -6.685488,-4.71 -2.881175,0 -4.447681,-1.54298 -8.213393,-8.09008 -1.45205,-2.52454 -3.675983,-5.06206 -4.942074,-5.63893 -1.388357,-0.63258 -2.842343,-2.68616 -3.663482,-5.17423 -1.496374,-4.53406 -2.530006,-5.70053 -5.531932,-6.24287 -1.377733,-0.2489 -2.530865,-1.91584 -3.706229,-5.35761 -2.382873,-6.97766 -2.292248,-2.08297 0.138931,7.50372 2.914452,11.49235 3.588763,12.81354 6.726098,13.17857 2.320479,0.26999 2.891709,0.94697 3.56922,4.22996 0.443631,2.14969 2.205637,6.35379 3.915569,9.34244 2.660429,4.64994 3.460124,5.36678 5.54295,4.96862 1.829156,-0.34966 2.843998,0.18647 4.083995,2.15756 7.009954,11.14297 13.205245,16.69552 14.4526706,12.95324 0.2144291,-0.64329 6.4394291,4.88639 13.8333333,12.28818 10.2849951,10.29596 14.9448671,14.21239 19.8339271,16.66961 8.276535,4.15975 11.559537,4.07319 20.411252,-0.53818 z M 32.241771,455.36856 c -11.140515,-3.38879 -17.803346,-13.08165 -15.128722,-22.00875 1.687572,-5.63261 11.253474,-14.85364 19.77238,-19.05954 l 6.862816,-3.38826 27,-0.16104 c 29.385845,-0.17527 33.683285,0.35959 42.864115,5.33484 6.56232,3.55624 15.3569,12.69437 16.81041,17.46709 3.26975,10.73649 -8.22386,22.71442 -21.82073,22.74023 -3.89736,0.007 -7.05213,-0.90026 -13.000003,-3.74023 l -7.853792,-3.75 h -14 -14 l -7.890831,3.75 c -8.017943,3.81041 -13.67565,4.62253 -19.615643,2.81566 z m 18.594795,-6.76792 c 7.31728,-3.47496 8.507629,-3.72763 19.38856,-4.11558 13.640812,-0.48634 20.743682,0.7517 28.714024,5.00492 4.95652,2.64494 6.42353,2.97771 11.03102,2.50217 9.25243,-0.95493 16.26607,-7.19617 16.27434,-14.48209 0.003,-2.54125 -1.05649,-4.4263 -4.64126,-8.25872 -9.34993,-9.99582 -23.875539,-14.3745 -40.151098,-12.10335 -6.626036,0.92463 -10.136278,0.94213 -14.703907,0.0733 -7.664524,-1.45789 -18.746424,-0.54642 -25.900526,2.13027 -6.734478,2.51969 -16.777526,9.85194 -18.414083,13.44379 -2.515128,5.5201 -0.604221,11.64899 4.84088,15.52625 7.094717,5.05188 13.355657,5.12603 23.56205,0.27903 z M 69.51323,433.98758 c -5.307538,-1.94364 -4.259342,-3.16303 2.991883,-3.48052 7.628214,-0.334 11.404432,0.85021 8.153036,2.55677 -3.374729,1.77129 -7.823581,2.14003 -11.144919,0.92375 z M 12.937639,417.5529 c 8.689426,-8.622 16.845883,-13.27385 27.454518,-15.65805 8.889064,-1.99775 57.728942,-2.01854 66.589923,-0.0284 10.68425,2.3997 18.92393,7.09208 27.62847,15.73404 4.6188,4.58558 8.53422,7.67637 9.49104,7.4921 0.8958,-0.17252 3.20657,-2.44529 5.13503,-5.05061 3.1562,-4.26397 3.81194,-4.6796 6.56736,-4.16268 2.82588,0.53013 3.34052,0.15334 6.69868,-4.90441 3.22371,-4.85526 4.00306,-5.46122 6.84912,-5.32535 2.93887,0.14031 3.44168,-0.30758 5.92335,-5.27628 1.49152,-2.98629 3.61273,-5.76286 4.71379,-6.17017 1.16361,-0.43045 2.95834,-3.04808 4.28586,-6.25095 1.58366,-3.82088 2.96902,-5.68233 4.51839,-6.0712 1.22896,-0.30845 2.53859,-1.3522 2.9103,-2.31945 1.79515,-4.67137 4.66648,-30.73 5.22219,-47.39381 l 0.62145,-18.63519 -2.22479,-0.70612 c -1.22364,-0.38837 -2.47736,-0.45355 -2.78606,-0.14486 -0.30869,0.30869 -0.61228,8.11228 -0.67464,17.34131 -0.10208,15.108 -0.34594,17.35622 -2.44731,22.56235 -1.28367,3.18027 -3.77709,7.68027 -5.54093,10 -3.5546,4.67485 -11.97519,10.18675 -18.12513,11.86423 -5.49431,1.49865 -29.38495,0.42118 -36.93705,-1.66587 -7.11317,-1.96575 -16.67784,-6.64728 -21.75643,-10.64894 -5.27498,-4.15639 -11.48487,-13.96227 -13.920764,-21.98192 -1.378854,-4.53958 -2.82514,-7.30982 -4.239308,-8.12004 -1.397146,-0.80047 -6.699982,-1.22977 -15.190432,-1.22977 -15.056132,0 -17.761749,0.98568 -18.866235,6.8731 -1.23158,6.56488 -7.356143,17.11582 -13.074812,22.5243 -10.948563,10.35469 -24.071558,14.50828 -46.0149738,14.56431 -14.4427902,0.0369 -15.2118362,-0.0657 -20.7026122,-2.76207 -14.970221,-7.35138 -21.787495,-23.32165 -20.290457,-47.5328 l 0.700759,-11.33316 -2.353845,0.33316 -2.353845,0.33316 0.07912,16.5 c 0.07442,15.52161 2.291338,38.70607 4.517117,47.23994 0.687859,2.63733 1.656163,3.9108 3.284375,4.31945 1.639812,0.41157 2.977201,2.19182 4.614916,6.1431 1.40042,3.37877 3.052307,5.75876 4.206474,6.06059 1.07034,0.2799 3.219282,3.10949 4.919637,6.47788 2.843739,5.63341 3.189674,5.94678 5.954391,5.39384 2.68546,-0.53709 3.248921,-0.11463 6.621218,4.96442 3.451298,5.19803 3.888399,5.5135 6.8655032,4.95499 2.7099461,-0.50839 3.4396466,-0.18721 4.9407406,2.17465 2.63963989,4.15329 5.6884865,7.27114 7.1102214,7.27114 0.695794,0 4.7798526,-3.4875 9.0756858,-7.75 z m -62.996403,-43.98097 c -0.253543,-0.97296 -0.477662,-0.41903 -0.498042,1.23097 -0.02038,1.65 0.187065,2.44607 0.460988,1.76903 0.273923,-0.67703 0.290597,-2.02703 0.03705,-3 z m -6.892991,0.53097 c 1.584777,-1.58477 1.680177,-56.46257 0.110875,-63.77997 -1.856339,-8.65581 -8.879753,-14.81125 -15.485733,-13.57196 -4.893334,0.91799 -10.03503,7.36402 -11.510315,14.43022 -3.364185,16.11349 3.759364,47.84742 13.138618,58.5298 4.664618,5.31271 10.849682,7.28879 13.746555,4.39191 z m 271.302115,-1.08352 c 9.08936,-6.10844 17.03865,-29.5129 17.22576,-50.71648 0.13366,-15.146 -3.95112,-23.66015 -12.2229,-25.47694 -4.47527,-0.98294 -10.57494,2.55836 -13.33239,7.7404 -2.17896,4.09491 -2.26583,5.29947 -2.59858,36.03151 -0.25772,23.80277 -0.0407,32.16072 0.86332,33.25 1.77431,2.13791 6.19187,1.77428 10.06479,-0.82849 z M 11.069164,348.0529 c 4.905025,-3.88587 9.179081,-9.44749 9.179081,-11.94428 0,-0.99314 -0.234648,-1.80572 -0.52144,-1.80572 -1.718691,0 -8.889151,5.87043 -11.9161265,9.75568 -5.8924309,7.5632 -4.0685396,9.79896 3.2584855,3.99432 z m 142.260316,-0.20232 c 4.24232,-3.35707 9.91877,-10.06768 9.91877,-11.72582 0,-0.45202 -0.68334,-0.82186 -1.51852,-0.82186 -1.97777,0 -14.48148,12.50371 -14.48148,14.48148 0,2.27639 1.27195,1.87191 6.08123,-1.9338 z M -6.1366135,343.13985 c 8.4166116,-6.31075 19.3848585,-18.90359 19.3848585,-22.25611 0,-1.35288 -0.369089,-1.45367 -2.042877,-0.55789 -5.1524156,2.75749 -22.957123,21.65101 -22.957123,24.36103 0,1.30785 2.8576125,0.52055 5.6151415,-1.54703 z M 139.46078,340.99392 c 6.00814,-4.89628 16.78747,-17.31749 16.78747,-19.34448 0,-2.42856 -2.41295,-1.40338 -8.03163,3.41235 -7.44596,6.38188 -16.96837,17.25541 -16.96837,19.37597 0,1.96681 3.24089,0.60777 8.21253,-3.44384 z M 100.2265,317.34354 c 1.49533,-2.79406 8.63787,-6.24492 20.53736,-9.92247 12.80914,-3.95868 20.79906,-5.05892 37.48439,-5.16175 10.98198,-0.0677 13.0337,-0.297 11,-1.22951 -1.58135,-0.72509 -9.29803,-1.16113 -21,-1.18661 -20.05576,-0.0437 -22.29667,0.3285 -39.46943,6.55533 -12.521954,4.54046 -13.531966,5.74343 -13.524998,16.10892 0.0031,4.5625 0.543563,10.09545 1.201102,12.29545 1.175878,3.93426 1.207708,3.84045 1.936771,-5.70802 0.407685,-5.3394 1.233347,-10.62751 1.834805,-11.75134 z m -48.264576,10.18035 c 0.299748,-3.30569 0.233015,-8.09078 -0.148296,-10.63355 -0.660652,-4.40554 -0.961006,-4.75809 -6.379338,-7.48783 -14.894563,-7.50385 -30.482373,-10.53339 -50.760289,-9.86544 -20.043056,0.66022 -25.031738,2.61421 -6.899521,2.70245 17.0990941,0.0832 27.632466,1.483 39.364029,5.23114 11.831072,3.77994 18.679546,7.15991 20.177113,9.95814 0.626553,1.17072 1.383661,5.69538 1.682461,10.05479 0.628627,9.17147 2.133999,9.19194 2.963841,0.0403 z m -63.867355,1.77537 c 4.3742811,-3.16871 10.1536762,-10.36694 10.1536762,-12.6464 0,-2.59999 -2.8867235,-1.30618 -8.4691092,3.7958 -5.597735,5.11602 -9.022069,10.02973 -7.824342,11.22746 1.048095,1.04809 1.829205,0.74571 6.139775,-2.37686 z M 135.45671,324.3029 c 4.77114,-5.38547 6.1122,-7.68378 4.91513,-8.42361 -2.0648,-1.27612 -15.12359,11.77754 -15.12359,15.11765 0,2.22788 5.4986,-1.37775 10.20846,-6.69404 z m -45.208465,-8.27475 c 0,-1.72114 -6.01221,-2.91522 -15,-2.97915 -10.993306,-0.0782 -18,0.93069 -18,2.5918 0,0.83585 4.632272,1.1621 16.5,1.1621 9.075,0 16.5,-0.34864 16.5,-0.77475 z m -24,-6.6817 c 4.398185,-0.50938 11.214624,-0.48468 16.481734,0.0597 8.854452,0.91519 9.060645,0.88629 14.550068,-2.03954 13.450063,-7.16881 34.620923,-12.04607 52.339863,-12.05784 10.24177,-0.007 28.46095,2.4795 33.45264,4.56516 4.9477,2.06728 6.3735,1.84615 6.00944,-0.93203 -0.17017,-1.29854 0.31615,-3.11472 1.08071,-4.03595 1.20252,-1.44896 0.97017,-3.18817 -1.72191,-12.88903 -1.71161,-6.16772 -3.87664,-14.58905 -4.81118,-18.71405 -2.20277,-9.72293 -2.68133,-10.2219 -8.38136,-8.73886 -2.85402,0.74255 -13.91875,1.18325 -30.25011,1.20483 -18.61282,0.0246 -25.75008,0.35052 -25.75,1.17588 6e-5,0.62801 2.07132,3.44554 4.60281,6.26116 5.12431,5.69946 5.24282,8.09699 0.40024,8.09699 -7.37202,0 -33.331666,-3.28702 -44.407185,-5.62286 -28.641456,-6.04051 -55.891573,-17.67146 -74.8931357,-31.96606 -6.8617919,-5.16202 -9.7026241,-6.4832 -9.7026241,-4.51238 0,2.2104 -14.8054812,16.43442 -22.8195962,21.92339 l -8.837797,6.05312 -1.287329,7.3124 c -0.70803,4.02181 -2.360117,11.57707 -3.671303,16.78946 -2.777063,11.03972 -2.902553,12.8867 -0.927065,13.64477 1.018228,0.39073 1.281694,1.43514 0.875,3.46862 -0.668119,3.34059 -0.171666,3.46993 5.558631,1.44816 6.203891,-2.18886 23.699298,-4.53939 33.7377969,-4.53272 17.6063281,0.0117 35.8475521,4.16028 50.1120771,11.39693 7.541261,3.82583 7.757272,3.85706 18.259585,2.64072 z M 207.24825,293.33966 c 2.49076,-1.91168 2.50114,-1.98919 2.81069,-20.98586 0.27314,-16.76246 0.11672,-19.14152 -1.29407,-19.68289 -0.88262,-0.33869 -5.16216,0.78995 -9.51009,2.50809 -4.34794,1.71815 -8.4292,3.1239 -9.06948,3.1239 -0.81355,0 -0.9603,1.3593 -0.4873,4.51353 0.8046,5.36546 7.10407,27.78427 8.58427,30.55005 1.34011,2.50401 5.68544,2.49101 8.96598,-0.0268 z M -61.856507,277.0529 c 3.750763,-38.56257 9.285831,-57.13378 22.174796,-74.40066 5.263307,-7.05106 13.758024,-11.35832 22.339679,-11.32738 6.97165,0.0251 12.5241993,2.17626 18.8888568,7.31774 15.9708862,12.90155 45.6291812,29.40066 63.0790652,35.0913 9.18888,2.99661 9.96384,3.06739 11.628165,1.062 1.399678,-1.68651 -0.183505,-4.36515 -8.565942,-14.493 -5.285567,-6.38614 -15.439868,-22.88935 -15.439868,-25.09353 0,-1.87955 1.956022,-3.90647 3.769825,-3.90647 0.753404,0 3.250904,1.29093 5.55,2.86874 13.30243,9.12907 40.97107,20.42472 59.19196,24.16496 15.38795,3.15871 37.48892,3.20296 48.97915,0.0981 18.61484,-5.03012 30.99038,-12.03997 44.59539,-25.26007 7.25361,-7.04839 8.86099,-8.93975 16.97372,-19.97246 1.95802,-2.66277 5.42938,-6.19554 7.71412,-7.8506 4.90044,-3.54987 7.89473,-8.53774 6.28772,-10.47407 -0.85091,-1.02529 -2.01924,-0.82448 -5.83901,1.00359 -7.78311,3.72486 -16.49031,4.80977 -24.76124,3.08523 -7.80948,-1.62832 -24.79199,-9.32906 -39.96163,-18.12066 -38.62885,-22.38742 -57.97648,-28.69208 -92.500005,-30.14223 -29.458643,-1.2374 -53.524644,3.8245 -74.7676083,15.72617 -5.6905249,3.18819 -10.6606162,7.28068 -18.8213527,15.49792 -11.07029,11.14694 -11.102282,11.16938 -19,13.32986 -9.867369,2.69929 -15.038596,5.68267 -20.418349,11.77975 -5.394985,6.11434 -10.873518,16.97775 -11.616136,23.0337 -0.319155,2.60265 -1.409085,9.0071 -2.422069,14.2321 -3.195126,16.48056 -4.484247,43.33811 -3.030869,63.1451 1.235044,16.83147 2.132282,21.8549 3.903513,21.8549 0.482148,0 1.412801,-5.5125 2.068119,-12.25 z M 114.82048,263.41978 c -0.30019,-0.48572 -3.13925,-1.18856 -6.30902,-1.56186 -11.899831,-1.40142 -33.994921,-5.50711 -40.263215,-7.48167 -3.575,-1.12615 -7.4,-2.03533 -8.5,-2.02041 -1.763922,0.0239 -1.704903,0.18754 0.5,1.38602 7.534284,4.0953 56.487395,12.77671 54.572235,9.67792 z M 55.748245,251.3603 c -1.1,-0.44398 -4.7,-1.82705 -8,-3.07349 -3.3,-1.24644 -9.499226,-4.00272 -13.776059,-6.12508 -8.632554,-4.28386 -10.153994,-4.75037 -6.608799,-2.02642 1.905128,1.4638 18.788735,8.94885 25.884858,11.47559 2.464421,0.87751 4.731867,0.65023 2.5,-0.2506 z m 126.000005,-5.06211 c 11.32587,-2.93868 26.87733,-9.03618 24.80677,-9.72636 -0.52249,-0.17417 -3.39276,0.75486 -6.37838,2.0645 -15.94055,6.99231 -34.11346,9.30358 -65.7392,8.36087 -14.32677,-0.42705 -20.18961,-0.29472 -19.45574,0.43916 1.69883,1.69883 18.45619,2.75634 37.26655,2.3518 15.63129,-0.33618 18.78139,-0.70885 29.5,-3.48997 z m -214.938168,0.23322 c -0.335201,-0.33521 -1.386242,0.20382 -2.335646,1.19783 -1.650222,1.72775 -1.623401,1.75458 0.609456,0.60946 1.284605,-0.65881 2.061391,-1.47209 1.72619,-1.80729 z"
         id="path101" /><path
         style="fill:#182a6f"
         d="m 60.748245,494.88417 c -29.133396,-8.85964 -52.4634485,-21.01908 -72.237797,-37.64976 -23.45414,-19.72547 -41.31867,-47.25744 -42.797819,-65.95797 -0.95536,-12.0784 -0.906474,-11.97354 -5.582307,-11.97354 -12.220539,0 -21.001764,-12.20823 -25.912129,-36.02472 -2.699863,-13.095 -2.98705,-30.37965 -0.611295,-36.79135 2.412346,-6.51045 5.126201,-9.72153 10.252868,-12.13134 l 4.642553,-2.18226 -0.622163,-4.53918 c -1.596566,-11.64822 -2.783464,-39.09735 -2.197934,-50.83115 0.895207,-17.93961 2.24081,-28.29652 5.194178,-39.97881 6.629416,-26.2232 18.722902,-41.0156 36.82467,-45.04286 7.333687,-1.63159 7.497012,-1.73837 14.469076,-9.45982 19.7256867,-21.84586 46.549615,-33.28307 83.578099,-35.63609 11.131967,-0.7074 33.249767,0.85376 45.797885,3.23259 18.19119,3.44861 37.25838,11.37623 62.70212,26.06984 24.19592,13.973 37.35871,19.48053 47,19.66559 11.51226,0.22097 18.46081,-3.06584 24.1028,-11.40111 l 1.6028,-2.36793 1.3972,2.4593 c 0.9879,1.73887 1.38782,5.97459 1.36518,14.4593 -0.0729,27.31003 -8.68193,51.24869 -25.8934,72 l -4.14708,5 0.11785,28.39189 0.11785,28.39189 3.54735,1.8199 c 10.31165,5.29019 13.92084,19.18779 10.75058,41.39632 -3.89495,27.28519 -13.87729,43.5 -26.77994,43.5 -4.74841,0 -4.68845,-0.12717 -5.64558,11.97354 -0.6545,8.27471 -4.16757,17.5078 -11.68374,30.70731 -5.00619,8.79161 -21.48258,27.26312 -32.29927,36.21038 -17.55383,14.52003 -39.79318,26.55702 -63.052605,34.12706 -16.557956,5.38897 -23.088439,5.88125 -34,2.56298 z m 23.093727,-1.13082 c 31.297138,-8.13168 60.273608,-24.29224 81.453298,-45.4276 17.10989,-17.07406 30.43237,-38.95048 32.89929,-54.02285 1.60669,-9.81653 2.5985,-40 1.31437,-40 -0.57976,0 -1.59032,3.9375 -2.24569,8.75 -1.54168,11.32094 -3.78111,21.26327 -5.16495,22.93069 -0.60222,0.72562 -1.88442,1.31931 -2.84935,1.31931 -1.1538,0 -2.49701,1.72623 -3.9236,5.04242 -1.28017,2.97584 -3.13391,5.48198 -4.52309,6.11493 -1.29465,0.58988 -3.11225,2.75422 -4.03912,4.80965 -2.45234,5.4383 -6.27325,9.24447 -8.55369,8.52069 -1.29384,-0.41065 -2.5937,0.26061 -4.17046,2.15368 -4.90093,5.88411 -6.78437,7.35863 -9.39935,7.35863 -1.91214,0 -3.69818,1.16671 -6.12338,4 -1.88312,2.2 -4.10247,4 -4.9319,4 -0.82943,0 -5.40687,-3.9668 -10.17208,-8.81512 -10.35446,-10.53504 -17.77666,-14.5852 -30.9882,-16.90969 -7.167194,-1.26103 -10.396506,-1.32959 -18.57111,-0.3943 -7.403079,0.84701 -12.566167,0.84284 -20.5,-0.0166 -8.893912,-0.9634 -11.903672,-0.89869 -18.656535,0.40111 -13.113812,2.52415 -20.56962,6.62671 -30.676686,16.87988 -4.8006792,4.87008 -9.3608161,8.85468 -10.1336381,8.85468 -0.7728221,0 -3.03132283,-1.8 -5.0188907,-4 -2.4179807,-2.67641 -4.457661,-4 -6.1641112,-4 -2.5040391,0 -6.028711,-2.98457 -9.239739,-7.82389 -1.048337,-1.57994 -2.18167,-2.15661 -3.540215,-1.80134 -3.078971,0.80517 -4.914581,-0.70926 -8.15504,-6.72812 -1.639077,-3.04443 -3.980856,-5.99129 -5.203954,-6.54857 -1.240824,-0.56536 -3.171894,-3.21711 -4.368653,-5.99905 -1.492975,-3.47052 -2.795793,-5.079 -4.286679,-5.29242 -3.142598,-0.44987 -4.425218,-4.05474 -6.819307,-19.16603 -1.182276,-7.46243 -2.53022,-13.33282 -2.99543,-13.0453 -1.168873,0.7224 -1.058148,13.81138 0.245924,29.07121 1.492191,17.46114 5.186771,26.83888 18.22887,46.2693 15.905452,23.69631 46.15803,45.67294 80.179369,58.24536 6.612069,2.44346 24.27446,7.59577 26.640524,7.77133 0.352288,0.0261 5.056229,-1.09977 10.453203,-2.50203 z M 31.463885,453.41229 c -8.849785,-3.05689 -13.21564,-8.71822 -13.21564,-17.13713 0,-3.55578 0.67622,-4.80698 5.160541,-9.54849 6.157312,-6.51045 14.390436,-10.82593 24.765778,-12.98126 6.158135,-1.27927 8.975823,-1.3502 16.5,-0.41535 6.393822,0.79441 11.436435,0.82771 17.073681,0.11278 16.090318,-2.04063 30.103465,1.84452 40.191135,11.14301 5.39024,4.96855 7.30887,8.43811 7.30887,13.21705 0,7.24845 -5.45111,13.36861 -14.22893,15.97534 -7.34687,2.18179 -9.25245,1.95426 -17.416203,-2.07953 -14.129369,-6.98145 -33.519599,-6.94652 -47.752374,0.086 -8.04581,3.97551 -10.866591,4.2252 -18.386858,1.62755 z m 18.126327,-3.62935 c 14.117862,-6.88417 33.946932,-6.82231 48.809488,0.15225 6.53173,3.06516 8.40582,3.53422 11.89281,2.97662 9.80974,-1.56864 16.45139,-7.751 16.45418,-15.31632 0.001,-3.63917 -0.60621,-4.8289 -4.49844,-8.80895 -9.61034,-9.82716 -25.403915,-14.76978 -39.892418,-12.48439 -9.178921,1.44787 -7.930931,1.44261 -17.153507,0.0723 -13.541629,-2.01207 -26.102551,1.2509 -37.099721,9.63745 -5.778968,4.4071 -8.282238,9.06641 -7.292376,13.57322 0.971412,4.42281 3.060085,7.3211 7.055533,9.79042 7.82531,4.83631 12.463419,4.92329 21.724451,0.40741 z M 68.248245,432.8029 c -2.323229,-1.32808 -1.934335,-1.42913 5.5,-1.42913 7.434335,0 7.82323,0.10105 5.5,1.42913 -1.375,0.78602 -3.85,1.42913 -5.5,1.42913 -1.65,0 -4.125,-0.64311 -5.5,-1.42913 z M 13.028069,418.34318 c 9.596146,-9.73902 18.464247,-14.388 31.888651,-16.71721 7.28433,-1.26388 10.573589,-1.33566 18.775381,-0.40973 7.397492,0.83513 12.518973,0.8302 20,-0.0192 8.371754,-0.95059 11.535412,-0.88196 18.887669,0.40972 13.43995,2.36121 22.31279,7.01804 31.88865,16.73647 4.31362,4.37785 8.41955,7.95972 9.1243,7.95972 1.45704,0 5.43348,-4.1196 8.06648,-8.3569 1.29779,-2.08854 2.07294,-2.5592 2.88214,-1.75 2.3433,2.3433 4.76607,1.05325 8.24984,-4.39277 3.17794,-4.96791 3.82938,-5.47552 6.73758,-5.25 2.97853,0.23099 3.42708,-0.16028 5.99334,-5.22791 1.52562,-3.01267 3.77562,-6.01264 5,-6.66661 1.23124,-0.65763 3.18473,-3.56774 4.37103,-6.51153 1.52928,-3.79487 2.80528,-5.47841 4.44574,-5.86567 1.7777,-0.41966 2.58203,-1.67269 3.5375,-5.51088 2.81604,-11.31233 6.45769,-56.00535 5.02766,-61.70307 -0.63268,-2.52077 -3.00211,-3.82719 -5.44875,-3.00425 -1.01154,0.34024 -1.14979,3.07985 -0.63516,12.58725 1.05264,19.4468 -2.22984,31.44074 -11.00666,40.21756 -7.71243,7.71243 -14.02957,9.88405 -28.56521,9.81976 -31.52881,-0.13946 -51.57476,-12.06945 -58.490325,-34.80948 -2.581504,-8.4886 -3.888363,-9.35885 -15.385695,-10.24546 -8.036015,-0.61969 -19.416861,0.86512 -21.827377,2.84772 -0.661866,0.54437 -1.940704,3.52603 -2.841863,6.62591 -2.322243,7.98824 -4.970754,12.76459 -10.145918,18.29726 -9.426945,10.07816 -21.457696,15.09397 -40.713874,16.97423 -17.724584,1.73072 -28.251976,-1.0116 -36.784976,-9.58224 -8.043908,-8.07939 -11.051414,-18.83563 -10.623034,-37.99292 0.307236,-13.73965 0.272474,-14.00578 -1.869282,-14.31068 -3.920644,-0.55816 -4.674241,2.81339 -3.971041,17.7662 0.735666,15.64319 3.376631,40.31554 5.022756,46.92347 0.865205,3.47313 1.683496,4.66819 3.485735,5.09068 1.705118,0.39972 2.947082,2.02107 4.5,5.87461 1.186302,2.94379 3.13979,5.8539 4.371033,6.51153 1.22438,0.65397 3.47438,3.65394 5,6.66661 2.566257,5.06763 3.014807,5.4589 5.99334,5.22791 2.908197,-0.22552 3.559644,0.28209 6.737579,5.25 3.469922,5.42437 5.9070097,6.7356 8.2199822,4.42263 0.7693933,-0.7694 1.7301886,-0.1267 3.3636085,2.25 3.47133044,5.05093 6.1676613,7.82704 7.6020996,7.82704 0.7117687,0 4.8234507,-3.58187 9.1370707,-7.95972 z m -68.961665,-44.84501 c 1.04157,-1.33955 1.2514,-8.09506 1,-32.19527 -0.315355,-30.23122 -0.340189,-30.54405 -2.818159,-35.49855 -3.049862,-6.09796 -7.801668,-9.50145 -13.26553,-9.50145 -3.260707,0 -4.646043,0.67628 -7.756017,3.78625 -5.269549,5.26955 -6.296746,9.89148 -5.714735,25.71375 0.88349,24.01817 8.867211,44.39858 19.236282,49.10534 3.503762,1.59044 7.449356,0.99337 9.318159,-1.41007 z m 268.813806,0.88451 c 6.73828,-3.05981 12.05982,-12.46794 16.44848,-29.07978 3.26169,-12.34609 3.3861,-33.40772 0.23758,-40.22333 -5.5182,-11.94528 -18.95018,-11.68115 -24.44808,0.48076 -2.33127,5.15702 -2.36994,5.75383 -2.36994,36.57142 0,29.85737 0.0912,31.39559 1.94112,32.75 2.48032,1.81591 3.18774,1.7728 8.19084,-0.49907 z M 12.904659,347.06653 c 10.290426,-9.73226 11.338994,-16.75958 1.532401,-10.26988 -4.276791,2.83024 -11.1888148,11.39564 -11.1888148,13.86521 0,3.16943 4.1292985,1.63198 9.6564138,-3.59533 z M 155.42567,346.5529 c 6.56644,-6.26261 9.49733,-10.71494 7.76019,-11.78855 -2.92633,-1.80857 -18.2488,13.60799 -16.43761,16.53855 1.13806,1.84144 2.61243,1.03437 8.67742,-4.75 z M -4.6560775,342.73267 c 8.8013147,-6.46076 20.5977595,-21.06966 18.6146925,-23.05273 -1.310573,-1.31057 -5.5916806,1.51595 -13.1031498,8.65111 -6.4761137,6.15167 -13.6072202,15.22297 -13.6072202,17.3094 0,1.66486 3.6547417,0.35217 8.0956775,-2.90778 z M 139.96003,341.30013 c 9.11325,-7.37387 18.82976,-19.78902 16.95488,-21.66389 -1.26833,-1.26834 -5.63345,1.64083 -13.09045,8.72426 -6.81694,6.47543 -13.57621,14.996 -13.57621,17.11385 0,2.1341 4.08579,0.37798 9.71178,-4.17422 z m -38.51416,-24.18401 c 1.99626,-3.03737 12.57847,-7.70938 24.32443,-10.73916 11.22124,-2.89443 24.13614,-4.01612 39.64604,-3.44337 14.96862,0.55277 15.77392,-0.73686 1.99468,-3.1943 -18.76471,-3.34658 -40.5042,-0.95729 -60.1205,6.60756 -11.631499,4.48558 -12.226145,5.14069 -12.801313,14.10303 -0.501837,7.81969 0.937413,17.15245 3.03747,19.69637 0.983058,1.19083 1.319193,-0.66085 1.721568,-9.4837 0.363669,-7.97413 0.962875,-11.66773 2.197625,-13.54643 z m -49.176497,13.08125 c 0.818324,-5.74987 0.66273,-10.3208 -0.560834,-16.47585 -0.555764,-2.79574 -12.899059,-8.51088 -25.960294,-12.02004 -8.755192,-2.35225 -11.991693,-2.69988 -25.99999976,-2.79263 -16.61381324,-0.11001 -27.86190124,1.35365 -31.20110624,4.06005 -1.627863,1.31938 -1.43244,1.39839 2.055447,0.83111 6.136365,-0.99804 35.3191478,-0.63894 42.02985,0.51719 8.179608,1.40919 24.161127,6.51061 29.09683,9.28793 5.335683,3.00238 6.486776,5.70676 6.504237,15.28111 0.0081,4.44583 0.322242,8.39083 0.698076,8.76666 1.33187,1.33187 2.439177,-1.14148 3.337794,-7.45553 z m -63.699744,-0.41369 c 4.3992704,-3.35909 10.67861624,-11.21043 10.67861624,-13.35194 0,-1.92361 -1.95353304,-2.20423 -4.86471814,-0.69879 -4.2465132,2.19595 -13.1352821,12.52902 -13.1352821,15.26957 0,3.20432 1.954737,2.8789 7.321384,-1.21884 z m 142.352661,-0.18133 c 4.07446,-3.10774 10.32596,-10.94379 10.32596,-12.94325 0,-3.0477 -3.80209,-0.96961 -10.21192,5.58149 -6.6522,6.79881 -8.34564,10.06231 -5.22136,10.06231 0.86169,0 3.15999,-1.21524 5.10732,-2.70055 z M 91.248245,316.10762 c 0,-2.26532 -5.262402,-3.28518 -17,-3.29464 -13.176324,-0.0106 -18.000028,0.72874 -17.999956,2.75897 3.2e-5,0.92696 4.32176,1.23578 17.5,1.25048 9.624976,0.0108 17.499956,-0.31092 17.499956,-0.71481 z m -21.5,-6.44121 c 5.588534,-0.33052 12.426307,-0.12898 15.5,0.45685 5.305243,1.01115 5.783284,0.91279 13.5,-2.77772 18.191775,-8.7002 33.971635,-11.6648 57.268865,-10.75922 10.54428,0.40987 16.86277,1.17454 22.23114,2.69046 10.66627,3.01193 11.55472,3.02158 11.23448,0.12201 -0.14604,-1.32226 0.43189,-3.17474 1.28427,-4.11662 1.40596,-1.55357 1.30873,-2.53693 -1.04777,-10.59588 -1.42866,-4.88586 -3.66371,-13.55551 -4.96677,-19.26588 -1.30306,-5.71037 -2.82663,-10.83992 -3.3857,-11.39899 -0.68866,-0.68866 -4.01622,-0.59131 -10.3175,0.30185 -7.86345,1.11459 -33.27501,1.45779 -48.776,0.65876 -5.00007,-0.25774 -4.87767,1.89645 0.45356,7.98222 2.48679,2.83875 4.52143,5.65125 4.52143,6.25 0,1.52593 -8.02557,1.37051 -24,-0.46477 -38.401267,-4.41186 -73.944228,-17.42511 -98.5690248,-36.08881 -3.88796106,-2.94677 -7.5637593,-5.35777 -8.1684405,-5.35777 -0.6046813,0 -2.043351,1.52731 -3.1970438,3.39403 -3.067761,4.96374 -15.1927469,16.05967 -23.0584499,21.10146 -6.966775,4.46559 -7.356384,5.01778 -8.469927,12.00451 -0.350636,2.2 -2.02403,9.81282 -3.718654,16.91738 -2.852901,11.96054 -2.956906,13.00822 -1.404064,14.14369 1.184438,0.86608 1.485605,1.98916 1.025265,3.8233 -0.849819,3.38595 1.356464,4.28954 5.385931,2.20582 8.087268,-4.18209 38.3537079,-5.93694 55.174403,-3.19902 10.327446,1.68101 21.794158,5.43939 30.789904,10.09184 3.868821,2.00089 7.556962,3.25896 8.710096,2.97113 1.1,-0.27456 6.5,-0.76535 12,-1.09063 z M 208.64294,294.5529 c 2.48506,-1.5125 4.80111,-3.425 5.14677,-4.25 0.99173,-2.367 1.81589,-31.98429 1.05867,-38.04486 -1.0414,-8.33504 -1.58127,-8.82247 -7.31565,-6.60494 -2.63147,1.01761 -8.15948,3.0986 -12.28448,4.62443 -7.00303,2.59039 -7.52104,2.98502 -7.81751,5.95541 -0.36607,3.66777 1.68922,13.28146 5.89411,27.56996 4.12716,14.02433 6.8262,15.91848 15.31809,10.75 z m -258.601379,-1.49134 c 1.28357,-2.69113 2.26783,-6.75152 6.244034,-25.75866 1.093045,-5.225 2.213997,-10.50703 2.491002,-11.73784 0.306186,-1.36046 2.163642,-3.08229 4.737648,-4.3917 9.144253,-4.65175 23.510556,-17.76876 28.6082156,-26.12046 2.5853111,-4.23561 4.9335841,-4.73154 7.72079708,-1.63055 4.25215682,4.73087 20.67453832,15.39381 32.90498732,21.36499 22.551072,11.00994 44.183956,17.0475 73.817975,20.60199 12.27435,1.47226 13.41659,0.75795 8.31625,-5.20065 -3.78733,-4.42464 -4.70758,-8.53666 -2.13168,-9.52513 0.82639,-0.31712 9.05671,-0.0489 18.28959,0.59592 29.15759,2.03652 53.18791,-1.46575 71.82506,-10.46807 7.53514,-3.6397 10.25694,-5.63491 15.68546,-11.49822 13.83164,-14.93945 23.34672,-36.76914 25.71256,-58.99028 0.43918,-4.125 1.12659,-9.6375 1.52757,-12.25 0.87869,-5.72483 0.23033,-5.90893 -7.82403,-2.22152 -6.91052,3.16375 -16.6168,4.16785 -23.83414,2.46561 -7.2989,-1.72147 -19.96795,-7.50208 -36.5597,-16.68139 -44.96267,-24.87542 -57.1639,-29.07925 -90.873866,-31.30982 -35.06375,-2.32015 -64.778834,4.74441 -87.22576031,20.73735 -3.45109139,2.45883 -9.89773669,8.42133 -14.32587869,13.25001 -7.622502,8.31197 -8.353273,8.83935 -13.725289,9.90517 -30.311228,6.01384 -42.663242,37.39813 -40.775988,103.60459 0.861724,30.23001 0.964563,30.77563 6.601867,35.02703 5.76343,4.34651 10.787285,4.43747 12.793316,0.23163 z"
         id="path100" /></g></g></svg>
